<?xml version="1.0" standalone="no"?>
<!DOCTYPE svg PUBLIC "-//W3C//DTD SVG 20010904//EN"
 "http://www.w3.org/TR/2001/REC-SVG-20010904/DTD/svg10.dtd">
<svg version="1.0" xmlns="http://www.w3.org/2000/svg"
 width="1085.000000pt" height="1085.000000pt" viewBox="0 0 1085.000000 1085.000000"
 preserveAspectRatio="xMidYMid meet">
<metadata>
Created by potrace 1.14, written by Peter Selinger 2001-2017
</metadata>
<g transform="translate(0.000000,1085.000000) scale(0.100000,-0.100000)"
fill="#000000" stroke="none">
<path d="M0 5430 l0 -5000 5425 0 5425 0 0 5000 0 5000 -5425 0 -5425 0 0
-5000z m1967 3846 c0 -8 -9 -14 -19 -13 -10 1 -18 5 -18 10 0 5 -7 4 -15 -3
-8 -7 -15 -8 -15 -3 0 5 -7 10 -15 10 -9 0 -14 -6 -11 -14 7 -17 1 -17 -18 3
-12 12 -16 12 -16 2 0 -10 -3 -9 -10 2 -9 13 -11 13 -20 0 -9 -13 -11 -13 -20
0 -9 13 -10 13 -10 0 0 -13 -1 -13 -10 0 -9 13 -11 13 -20 0 -9 -13 -11 -13
-20 0 -9 13 -10 13 -10 0 0 -13 -1 -13 -10 0 -9 13 -11 13 -20 0 -6 -10 -13
-11 -17 -5 -11 15 -39 12 -35 -4 1 -7 -2 -10 -8 -6 -6 3 -7 12 -3 18 5 8 2 8
-9 0 -8 -7 -18 -10 -22 -6 -3 4 -13 -2 -22 -13 -8 -10 -13 -13 -9 -6 8 15 -31
17 -40 2 -3 -5 -11 -10 -16 -10 -6 0 -7 5 -4 10 4 6 -10 1 -29 -10 -20 -11
-36 -17 -36 -13 0 3 -8 -1 -17 -9 -10 -8 -25 -18 -34 -21 -9 -3 -23 -19 -30
-36 -8 -17 -18 -31 -23 -31 -6 0 -1 -7 10 -15 19 -15 19 -15 -1 -8 -11 3 -17
3 -13 -2 4 -4 3 -14 -3 -21 -7 -8 -7 -14 1 -19 8 -5 6 -14 -7 -28 -16 -18 -16
-20 -1 -14 12 4 15 2 11 -9 -3 -7 -10 -14 -15 -14 -6 0 -4 -8 3 -17 10 -11 10
-14 2 -9 -7 4 -13 2 -13 -3 0 -6 6 -11 13 -11 8 0 9 -2 1 -8 -8 -4 -12 -50
-13 -127 -1 -80 -6 -122 -14 -127 -9 -5 -9 -8 -1 -8 8 0 12 -21 13 -55 0 -41
-3 -54 -12 -48 -9 5 -9 4 0 -8 7 -9 11 -43 9 -87 -1 -44 2 -72 9 -73 6 0 6 -2
-1 -5 -6 -2 -8 -18 -6 -35 3 -20 0 -34 -9 -40 -10 -6 -11 -9 -1 -9 6 0 12 -12
12 -26 0 -17 -4 -23 -12 -18 -10 6 -10 4 -2 -7 7 -8 11 -53 10 -112 -1 -59 3
-97 9 -97 6 0 3 -5 -5 -10 -8 -5 -10 -10 -5 -10 6 0 3 -5 -5 -10 -9 -6 -10
-10 -3 -10 8 0 11 -17 9 -52 -2 -29 1 -58 6 -64 5 -8 2 -14 -8 -18 -13 -5 -14
-9 -4 -21 7 -9 10 -18 7 -22 -4 -3 -2 -14 3 -24 7 -12 6 -20 -2 -25 -7 -5 -8
-3 -3 6 5 9 4 11 -4 6 -9 -6 -9 -11 0 -22 6 -8 9 -17 6 -21 -4 -3 -2 -12 3
-18 8 -9 6 -14 -6 -19 -11 -4 -13 -10 -6 -19 5 -6 10 -37 10 -67 1 -143 6
-229 12 -225 4 2 7 -2 7 -10 0 -8 -5 -11 -11 -8 -6 4 -6 1 1 -8 6 -8 14 -26
17 -39 13 -66 17 -75 26 -78 12 -4 3 -22 -11 -22 -5 0 -9 9 -9 20 0 11 -4 20
-10 20 -5 0 -10 14 -10 30 0 17 -4 30 -10 30 -6 0 -10 36 -10 89 0 50 -4 93
-10 96 -14 9 -14 1241 0 1250 6 4 10 65 10 151 0 89 4 144 10 144 6 0 10 14
10 30 0 17 5 30 10 30 6 0 10 7 10 15 0 20 45 65 65 65 8 0 15 5 15 10 0 6 14
10 30 10 17 0 30 5 30 10 0 6 15 10 34 10 19 0 38 5 41 10 4 6 85 10 209 10
169 0 203 -2 203 -14z m1853 4 c0 -6 25 -10 55 -10 30 0 55 -4 55 -10 0 -5 9
-10 20 -10 11 0 20 -4 20 -10 0 -5 7 -10 15 -10 19 0 85 -64 85 -82 0 -8 9
-20 20 -28 11 -8 20 -21 20 -29 0 -7 8 -21 18 -30 10 -9 25 -31 33 -48 7 -18
18 -33 23 -33 4 0 5 -7 2 -16 -3 -9 -2 -12 5 -9 6 4 13 -2 16 -14 3 -12 9 -21
14 -21 5 0 9 -8 9 -18 0 -10 9 -24 20 -32 11 -8 20 -22 20 -32 0 -10 5 -18 10
-18 6 0 10 -7 10 -15 0 -9 9 -25 20 -37 11 -12 20 -28 20 -35 0 -7 5 -13 10
-13 6 0 10 -9 10 -20 0 -11 5 -20 10 -20 6 0 10 -8 10 -19 0 -10 7 -24 15 -31
8 -7 15 -17 15 -23 0 -5 8 -17 18 -26 19 -18 51 -67 59 -93 3 -10 9 -18 14
-18 5 0 9 -9 9 -20 0 -11 5 -20 10 -20 6 0 10 -6 10 -13 0 -7 9 -23 20 -35 11
-12 20 -27 20 -34 0 -8 9 -20 20 -28 11 -8 20 -22 20 -32 0 -10 5 -18 10 -18
6 0 10 -7 10 -15 0 -9 9 -25 20 -37 11 -12 26 -34 32 -50 7 -15 16 -28 20 -28
5 0 8 -7 8 -15 0 -9 9 -25 20 -37 11 -12 20 -28 20 -35 0 -7 5 -13 10 -13 6 0
10 -9 10 -19 0 -11 4 -21 8 -23 11 -4 64 -109 58 -115 -9 -9 -26 8 -20 19 5 7
2 9 -8 5 -12 -4 -14 -1 -11 14 3 10 1 19 -4 19 -12 0 -37 51 -34 69 1 7 -2 10
-8 6 -6 -3 -11 -1 -11 4 0 6 -10 22 -22 37 -13 14 -23 29 -24 32 -2 14 -18 47
-25 52 -4 3 -23 36 -42 73 -18 37 -37 64 -40 60 -4 -3 -7 3 -7 15 0 12 -4 22
-10 22 -5 0 -10 7 -10 16 0 8 -4 12 -10 9 -6 -3 -7 1 -4 9 3 9 2 16 -4 16 -5
0 -12 9 -15 21 -4 14 -10 18 -19 13 -9 -5 -8 -2 2 11 9 11 10 16 3 11 -8 -4
-13 -1 -13 8 0 9 -5 16 -11 16 -5 0 -8 4 -4 9 3 6 -1 13 -9 18 -15 8 -16 11
-16 40 0 9 -3 13 -7 10 -4 -4 -13 7 -20 24 -8 19 -17 28 -24 23 -7 -4 -9 -3
-5 4 3 6 -1 18 -10 26 -8 9 -13 16 -9 16 3 0 0 7 -7 15 -7 9 -17 21 -23 28 -5
7 -10 19 -10 27 0 8 -6 14 -13 12 -6 -1 -11 1 -10 5 1 5 -3 18 -10 31 -7 12
-10 28 -6 34 5 7 3 8 -5 4 -8 -5 -14 0 -18 13 -3 12 -10 21 -15 21 -5 0 -6 5
-3 10 3 6 -1 13 -9 16 -9 3 -14 10 -11 14 3 5 -7 23 -22 41 -16 18 -21 30 -13
25 9 -4 8 -2 -2 7 -10 8 -15 17 -11 20 3 4 1 7 -5 7 -11 0 -28 38 -24 53 1 5
-2 6 -7 3 -11 -7 -33 18 -24 28 4 3 -3 13 -15 22 -12 8 -20 20 -17 25 4 5 -6
21 -22 36 -15 16 -26 29 -25 31 6 7 0 22 -7 17 -5 -3 -13 0 -17 6 -5 8 -2 10
7 4 8 -4 -2 7 -21 24 -19 17 -40 29 -47 27 -6 -3 -17 2 -23 10 -7 8 -21 14
-31 14 -11 0 -19 5 -19 10 0 6 -5 10 -11 10 -5 0 -8 -4 -5 -8 3 -5 -1 -9 -9
-9 -8 0 -12 3 -10 7 2 4 -9 7 -26 8 -17 0 -38 7 -47 14 -12 9 -14 10 -8 1 4
-7 2 -13 -3 -13 -6 0 -11 5 -11 11 0 8 -5 8 -15 -1 -9 -8 -15 -8 -15 -2 0 12
-118 11 -139 -2 -9 -6 -12 -5 -7 2 4 7 -1 10 -14 9 -11 -1 -20 -4 -20 -7 0 -3
-9 -6 -19 -6 -11 0 -17 4 -15 8 6 10 -26 5 -45 -6 -9 -6 -12 -5 -7 2 7 12 -32
11 -53 -3 -10 -5 -12 -4 -7 3 4 7 1 12 -8 12 -9 0 -16 -6 -16 -12 0 -9 -3 -9
-8 -3 -8 12 -47 14 -58 3 -4 -4 -13 -3 -19 2 -13 11 -50 9 -61 -3 -4 -4 -12
-7 -18 -7 -6 0 -4 5 4 10 12 8 10 10 -8 10 -16 0 -21 -4 -16 -12 6 -10 4 -10
-8 0 -12 10 -18 10 -23 1 -6 -8 -10 -8 -15 2 -7 10 -12 10 -23 0 -11 -8 -17
-9 -22 -1 -5 8 -10 8 -20 0 -10 -8 -14 -7 -17 2 -4 11 -8 11 -20 0 -12 -9 -18
-10 -23 -2 -5 8 -10 8 -20 0 -10 -8 -14 -7 -17 2 -4 11 -8 11 -20 0 -12 -9
-18 -10 -23 -2 -5 8 -10 8 -20 0 -9 -8 -14 -8 -17 1 -3 9 -9 9 -25 0 -16 -8
-24 -8 -29 0 -4 8 -9 7 -15 -2 -6 -10 -9 -11 -9 -1 0 6 -5 12 -11 12 -5 0 -7
-6 -3 -12 5 -10 4 -10 -6 -1 -9 8 -19 9 -31 3 -10 -6 -20 -6 -23 -2 -7 11 -46
9 -65 -2 -10 -6 -12 -5 -7 2 9 15 1 15 -26 1 -14 -8 -23 -8 -31 0 -13 13 -30
15 -22 2 6 -10 -33 -6 -43 4 -3 2 -11 0 -19 -6 -10 -9 -13 -8 -13 1 0 10 -3
10 -14 1 -10 -8 -16 -9 -21 -1 -3 5 -11 10 -16 10 -6 0 -8 -4 -5 -8 2 -4 -4
-8 -14 -8 -10 0 -16 4 -14 8 3 4 1 8 -5 8 -5 0 -13 -5 -16 -10 -4 -7 -13 -6
-27 1 -15 8 -19 8 -14 0 4 -6 2 -11 -3 -11 -6 0 -11 5 -11 11 0 8 -4 8 -15 -1
-8 -7 -20 -8 -27 -4 -18 12 -30 12 -50 2 -12 -6 -18 -5 -18 2 0 6 -5 8 -11 4
-20 -12 -119 -12 -112 0 4 6 -1 5 -10 -3 -11 -9 -17 -10 -17 -2 0 6 -5 11 -11
11 -5 0 -8 -4 -5 -8 3 -5 -1 -9 -9 -9 -8 0 -15 5 -15 11 0 6 -5 4 -10 -4 -9
-13 -10 -13 -10 0 0 13 -1 13 -10 0 -9 -13 -10 -13 -10 0 0 13 -1 13 -10 0 -8
-12 -10 -12 -10 -1 0 10 -3 11 -14 2 -14 -12 -32 0 -19 13 11 11 1843 7 1843
-4z m5505 0 c3 -5 26 -10 51 -10 24 0 44 -4 44 -10 0 -5 8 -10 19 -10 23 0 98
-72 112 -107 5 -15 7 -33 5 -40 -3 -8 -2 -12 2 -9 12 7 30 -94 43 -249 8 -100
10 -298 5 -690 -7 -603 -18 -777 -54 -867 -15 -36 -70 -88 -93 -88 -11 0 -19
-4 -19 -10 0 -5 -20 -10 -44 -10 -25 0 -48 -4 -51 -10 -3 -5 -21 -10 -38 -10
-23 0 -28 3 -17 9 8 6 19 7 25 3 5 -3 5 1 -2 9 -10 12 -4 14 33 12 24 0 44 3
44 7 0 5 8 7 18 5 33 -5 102 42 102 70 0 9 5 13 10 10 6 -4 10 5 10 19 0 14 4
26 8 26 4 0 9 12 10 28 4 42 7 56 16 71 6 10 5 12 -2 7 -8 -5 -12 1 -12 14 0
12 4 19 8 16 8 -5 9 20 12 172 1 32 5 50 11 46 6 -3 5 4 -3 15 -11 18 -11 23
2 31 8 5 10 10 4 10 -12 0 -14 98 -2 116 4 7 1 18 -8 25 -14 12 -14 14 2 26
10 7 12 13 6 13 -7 0 -12 5 -12 11 0 5 4 8 8 5 5 -3 9 1 9 9 0 8 -4 12 -9 9
-9 -6 -5 32 5 42 4 4 7 12 7 18 0 6 -5 4 -10 -4 -6 -11 -9 -2 -7 30 1 25 7 48
12 52 6 5 5 8 -4 8 -11 0 -11 3 0 17 10 11 10 14 2 9 -14 -8 -18 6 -6 18 10
10 12 56 1 50 -4 -3 -8 4 -8 16 0 13 4 19 11 14 8 -5 8 -1 0 13 -7 14 -7 23 1
31 9 9 9 12 0 12 -13 0 -11 47 2 68 4 7 2 12 -3 12 -6 0 -11 5 -11 11 0 5 6 7
13 3 9 -5 9 -4 0 6 -9 9 -9 19 -2 32 7 13 7 23 0 32 -6 7 -8 16 -4 20 9 9 11
46 3 41 -4 -3 -7 6 -7 20 0 14 2 23 6 21 4 -3 7 4 7 14 0 10 -4 16 -8 14 -9
-6 -6 26 5 43 4 6 3 14 -3 18 -5 3 -10 13 -10 21 0 8 4 13 8 10 4 -2 8 4 8 14
0 10 -4 16 -8 14 -10 -6 -5 26 6 45 6 9 5 12 -1 8 -6 -4 -10 6 -11 24 0 19 3
27 11 23 7 -3 3 2 -7 10 -11 9 -14 16 -8 16 8 0 11 10 7 28 -3 15 -6 51 -6 81
-1 35 -4 49 -10 40 -5 -8 -9 -9 -9 -4 0 6 5 16 12 23 7 7 8 12 2 12 -5 0 -11
17 -12 37 -2 21 -8 41 -15 45 -7 4 -8 8 -4 8 4 0 2 10 -5 23 -6 12 -13 30 -15
40 -4 21 -27 47 -42 47 -6 0 -16 9 -23 19 -6 10 -18 17 -25 14 -7 -3 -13 -1
-13 5 0 6 -10 8 -22 4 -16 -4 -19 -2 -13 9 6 11 5 12 -5 2 -8 -8 -18 -9 -24
-4 -6 5 -35 12 -65 15 -30 3 -56 8 -59 11 -3 3 -12 -1 -20 -8 -13 -9 -14 -9
-8 1 9 15 -6 16 -22 0 -7 -7 -12 -8 -12 -2 0 5 -13 10 -29 9 -16 0 -27 -3 -24
-7 2 -5 0 -8 -6 -8 -5 0 -12 6 -14 13 -4 9 -8 8 -17 -3 -9 -11 -13 -12 -17 -2
-2 6 -9 12 -14 12 -6 0 -7 -6 -3 -12 6 -10 4 -10 -8 0 -13 10 -17 10 -21 0 -3
-10 -7 -10 -17 -1 -9 9 -19 9 -33 2 -13 -8 -22 -8 -30 0 -7 7 -14 7 -24 0 -10
-9 -13 -8 -13 1 0 9 -4 9 -17 -1 -13 -11 -17 -11 -21 -1 -3 10 -7 10 -18 1
-11 -9 -17 -9 -28 0 -10 8 -16 9 -21 1 -4 -7 -13 -7 -27 1 -15 8 -19 8 -14 0
4 -6 2 -11 -3 -11 -6 0 -11 5 -11 11 0 8 -5 7 -16 -2 -11 -9 -17 -10 -23 -1
-5 8 -46 10 -46 2 0 -1 -10 -3 -22 -4 -12 -1 -20 1 -17 6 8 12 -10 10 -24 -4
-9 -9 -12 -9 -12 1 0 10 -3 11 -14 2 -11 -9 -16 -9 -21 0 -6 8 -10 7 -16 -2
-7 -12 -9 -12 -9 0 0 11 -3 11 -17 0 -14 -12 -16 -12 -8 0 6 11 4 13 -11 7
-29 -13 -65 -15 -58 -5 3 5 -4 9 -16 9 -13 0 -19 -4 -14 -11 5 -8 1 -8 -14 0
-12 6 -23 7 -26 2 -3 -4 -18 -6 -33 -4 -34 5 -40 5 -76 -1 -15 -2 -25 0 -21 5
3 5 -4 9 -16 9 -13 0 -19 -4 -14 -11 5 -8 1 -8 -13 0 -11 6 -23 8 -26 4 -10
-10 -58 -12 -51 -2 6 11 -25 7 -45 -5 -10 -6 -12 -5 -7 2 9 15 1 15 -26 1 -15
-8 -19 -8 -14 0 4 6 4 11 1 11 -4 0 -16 -5 -27 -11 -16 -9 -19 -8 -13 2 6 9 3
10 -11 5 -29 -13 -65 -15 -58 -5 3 5 1 9 -5 9 -5 0 -13 -5 -16 -10 -4 -7 -13
-7 -24 0 -12 6 -22 5 -29 -2 -9 -9 -12 -9 -12 2 0 11 -3 11 -12 2 -9 -9 -15
-9 -26 0 -10 9 -18 9 -33 0 -13 -8 -19 -9 -19 -1 0 6 -5 7 -12 2 -19 -11 -58
-11 -58 0 0 5 -7 4 -15 -3 -12 -10 -15 -10 -15 0 0 10 -3 10 -15 0 -10 -9 -15
-9 -15 -1 0 6 -7 11 -16 11 -8 0 -13 -4 -10 -8 2 -4 -4 -8 -14 -8 -10 0 -16 5
-12 11 3 5 -1 4 -10 -3 -11 -9 -17 -9 -20 -2 -2 8 -11 8 -31 1 -22 -9 -26 -8
-21 2 5 8 2 8 -9 -2 -11 -9 -17 -10 -17 -2 0 6 -7 11 -16 11 -8 0 -13 -4 -10
-8 2 -4 -4 -8 -14 -8 -10 0 -16 5 -12 11 3 5 -1 4 -10 -3 -12 -10 -17 -10 -20
-1 -3 8 -9 9 -18 4 -18 -11 -51 -14 -44 -4 2 4 -5 7 -16 6 -13 -1 -19 -6 -15
-15 4 -12 1 -11 -19 1 -13 9 -27 13 -30 10 -10 -10 -46 -11 -40 -1 3 4 1 8 -5
8 -5 0 -12 -4 -15 -8 -6 -11 -36 -9 -55 3 -10 5 -12 4 -7 -3 4 -8 -1 -12 -13
-13 -33 -2 -39 -4 -47 -11 -4 -4 -13 -3 -21 3 -10 9 -13 8 -13 0 0 -7 -4 -9
-10 -6 -5 3 -10 1 -10 -5 0 -6 -5 -8 -10 -5 -6 4 -17 2 -24 -4 -8 -7 -18 -11
-22 -10 -20 3 -35 -2 -29 -10 3 -5 -5 -11 -17 -13 -14 -2 -22 -9 -20 -18 2 -8
1 -12 -3 -8 -9 8 -35 -14 -28 -24 2 -5 -1 -8 -6 -8 -6 0 -11 -7 -11 -16 0 -8
-4 -13 -8 -10 -4 2 -14 -4 -21 -16 -8 -13 -9 -18 -1 -13 8 5 7 0 -1 -13 -7
-12 -17 -18 -23 -15 -5 4 -7 -1 -3 -11 4 -10 1 -19 -8 -22 -8 -4 -13 -10 -10
-14 3 -5 1 -11 -5 -15 -6 -4 -8 -11 -4 -16 3 -5 0 -8 -8 -7 -7 2 -12 -3 -10
-9 1 -7 -3 -13 -9 -13 -5 0 -7 -4 -4 -10 3 -5 2 -10 -2 -10 -5 0 -14 -9 -21
-21 -8 -12 -9 -18 -3 -14 6 3 11 1 11 -4 0 -6 -6 -11 -14 -11 -16 0 -29 -27
-20 -41 3 -5 0 -8 -7 -7 -7 2 -13 -1 -14 -7 0 -5 -4 -16 -8 -22 -5 -7 -5 -19
-1 -25 5 -9 2 -9 -9 1 -15 11 -17 11 -17 -1 0 -9 -9 -27 -21 -42 -11 -14 -17
-26 -12 -26 4 0 1 -5 -7 -10 -8 -5 -16 -14 -16 -20 -1 -5 -2 -15 -3 -21 0 -5
-6 -7 -13 -3 -7 5 -9 1 -6 -13 3 -13 -1 -25 -13 -34 -10 -7 -16 -16 -13 -21 3
-4 0 -8 -6 -8 -7 0 -9 -7 -6 -16 3 -8 2 -12 -4 -9 -9 6 -14 -8 -11 -27 0 -5
-3 -8 -8 -8 -5 0 -11 -9 -14 -20 -6 -23 -27 -27 -27 -5 0 8 5 15 10 15 6 0 10
9 10 20 0 11 5 20 10 20 6 0 10 9 10 20 0 11 5 20 10 20 6 0 10 5 10 11 0 6 7
17 15 25 8 9 15 24 15 35 0 10 5 19 10 19 6 0 10 9 10 20 0 11 5 20 10 20 6 0
10 6 10 13 0 6 11 25 25 41 13 16 27 37 30 47 4 11 11 19 16 19 5 0 9 9 9 20
0 11 5 20 10 20 6 0 10 6 10 13 0 7 9 23 20 35 11 12 20 28 20 37 0 8 5 15 10
15 6 0 10 6 10 13 0 8 9 22 20 32 11 10 20 24 20 32 0 7 5 13 10 13 6 0 10 8
10 18 0 10 9 24 20 32 11 8 20 20 20 28 0 18 66 82 85 82 8 0 15 5 15 10 0 6
11 10 24 10 14 0 28 5 31 10 3 6 26 10 50 10 24 0 47 4 50 10 8 14 2271 14
2280 0z m-2924 -829 c-11 -11 -27 -35 -36 -55 -10 -20 -22 -36 -27 -36 -5 0
-7 -4 -4 -9 3 -5 -1 -12 -10 -15 -9 -4 -14 -13 -10 -22 3 -9 2 -12 -5 -9 -6 4
-13 -2 -16 -14 -3 -12 -10 -21 -15 -21 -5 0 -6 -4 -3 -10 3 -5 1 -10 -6 -10
-7 0 -10 -3 -6 -6 3 -4 -5 -22 -20 -40 -14 -19 -23 -40 -20 -48 4 -11 1 -13
-11 -9 -15 6 -15 5 -3 -10 12 -15 12 -17 -4 -10 -15 5 -17 3 -12 -11 4 -10 3
-15 -3 -11 -9 6 -14 -8 -11 -27 0 -5 -7 -8 -16 -9 -13 0 -14 -2 -4 -6 7 -3 9
-8 5 -12 -5 -3 -17 -19 -26 -36 -10 -16 -22 -29 -28 -27 -5 1 -10 -1 -9 -5 3
-18 -14 -52 -22 -47 -8 5 -14 -17 -10 -39 1 -4 -6 -10 -14 -13 -8 -3 -12 -10
-9 -15 3 -5 0 -9 -6 -9 -7 0 -9 -7 -6 -16 3 -8 2 -13 -3 -9 -5 3 -15 -8 -23
-25 -7 -16 -17 -30 -21 -30 -5 0 -5 -4 -2 -10 3 -5 1 -10 -5 -10 -6 0 -8 -4
-5 -10 3 -5 1 -10 -4 -10 -6 0 -11 -6 -11 -13 0 -8 -12 -32 -28 -53 -33 -47
-56 -95 -53 -109 2 -5 -1 -7 -5 -3 -8 9 -44 -45 -44 -66 0 -7 -7 -19 -15 -26
-8 -7 -13 -16 -10 -20 3 -4 -5 -10 -16 -13 -12 -3 -18 -10 -14 -16 3 -6 1 -11
-5 -11 -6 0 -8 -4 -5 -10 3 -5 -1 -10 -9 -10 -10 0 -13 -7 -11 -20 2 -11 0
-18 -5 -15 -9 5 -26 -33 -22 -48 1 -5 -2 -6 -8 -2 -6 3 -10 -3 -10 -15 0 -14
-4 -19 -12 -14 -8 5 -9 2 -5 -10 4 -10 1 -19 -9 -23 -8 -3 -13 -12 -10 -20 3
-8 1 -11 -4 -8 -9 6 -14 -8 -11 -28 1 -5 -3 -6 -9 -2 -9 6 -14 -8 -11 -28 1
-5 -2 -6 -7 -3 -5 3 -15 -7 -23 -22 -7 -15 -22 -40 -33 -56 -13 -20 -15 -27
-5 -22 7 4 6 1 -3 -7 -10 -8 -14 -18 -10 -22 4 -5 2 -5 -4 -2 -14 8 -27 -20
-17 -35 3 -6 2 -9 -3 -5 -5 3 -14 -6 -21 -19 -8 -18 -8 -23 0 -18 7 3 4 -1 -5
-9 -10 -8 -15 -17 -11 -20 3 -4 -2 -9 -11 -13 -9 -3 -14 -9 -12 -13 3 -4 -4
-8 -15 -8 -10 -1 -19 4 -19 10 0 7 -4 6 -10 -3 -8 -12 -10 -10 -10 9 0 20 -2
22 -16 11 -8 -8 -14 -9 -13 -4 4 16 -13 64 -22 64 -5 0 -9 7 -9 15 0 8 -5 15
-11 15 -5 0 -7 4 -4 10 3 5 -3 15 -14 21 -11 7 -17 19 -13 27 3 10 1 13 -6 8
-8 -5 -12 0 -12 13 0 11 -6 26 -13 33 -6 7 -21 30 -32 51 -11 20 -23 37 -28
37 -4 0 -5 5 -2 10 3 6 1 10 -5 10 -6 0 -8 5 -5 10 3 6 1 10 -4 10 -6 0 -11 7
-11 15 0 8 -5 15 -11 15 -6 0 -9 7 -5 15 3 9 0 15 -10 15 -10 0 -14 6 -10 15
3 9 -1 18 -9 21 -8 4 -15 13 -15 21 0 8 -5 11 -12 7 -6 -4 -8 -3 -4 4 3 6 2
13 -4 17 -6 4 -8 11 -5 16 4 5 -1 12 -9 15 -9 3 -13 10 -10 15 3 5 0 9 -5 9
-6 0 -10 6 -9 13 2 6 -3 11 -11 9 -9 -2 -11 3 -7 13 3 9 -3 23 -14 32 -11 10
-20 23 -20 29 0 6 -6 17 -14 24 -8 6 -12 18 -9 26 3 9 0 14 -7 12 -7 -2 -14 6
-16 16 -1 10 -7 22 -12 25 -5 3 -22 30 -37 58 -15 29 -31 50 -36 47 -5 -3 -9
-2 -8 3 3 20 -3 34 -23 54 -13 12 -16 19 -8 15 8 -4 6 1 -5 11 -22 19 -27 44
-10 49 6 2 21 -19 34 -46 13 -28 27 -50 32 -50 5 0 9 -7 9 -15 0 -8 5 -15 10
-15 6 0 10 -8 10 -18 0 -10 9 -24 20 -32 11 -8 20 -22 20 -32 0 -10 5 -18 10
-18 6 0 10 -8 10 -18 0 -10 9 -24 20 -32 11 -8 20 -21 20 -30 0 -9 9 -22 20
-30 11 -8 20 -22 20 -32 0 -10 5 -18 10 -18 6 0 10 -9 10 -20 0 -11 5 -20 10
-20 6 0 10 -7 10 -16 0 -9 8 -24 18 -33 10 -9 26 -32 36 -51 32 -65 77 -145
84 -150 16 -12 32 -52 26 -62 -4 -6 -3 -8 3 -5 6 4 18 -11 28 -33 10 -22 21
-40 24 -40 3 0 17 -23 30 -50 14 -28 29 -50 33 -50 4 0 8 -5 8 -11 0 -16 26
-39 44 -39 9 0 16 7 16 15 0 8 5 15 10 15 6 0 10 9 10 20 0 11 5 20 10 20 6 0
10 8 10 18 0 10 9 24 20 32 11 8 20 22 20 32 0 10 5 18 10 18 6 0 10 8 10 18
0 10 9 24 20 32 11 8 20 21 20 30 0 9 9 22 20 30 11 8 20 20 20 28 0 7 12 36
28 64 15 28 31 59 37 69 5 11 13 19 17 19 5 0 8 8 8 18 0 10 9 24 20 32 11 8
20 22 20 32 0 10 5 18 10 18 6 0 10 8 10 18 0 10 9 24 20 32 11 8 20 21 20 30
0 9 9 22 20 30 11 8 20 22 20 32 0 10 5 18 10 18 6 0 10 8 10 18 0 10 9 24 20
32 11 8 20 22 20 32 0 10 5 18 10 18 6 0 10 9 10 20 0 11 5 20 10 20 6 0 10 7
10 15 0 8 5 15 10 15 6 0 10 6 10 13 0 7 9 23 20 35 11 12 20 28 20 37 0 8 5
15 10 15 6 0 10 8 10 19 0 10 7 24 15 31 8 7 15 18 15 24 0 7 8 21 18 32 9 10
28 40 41 67 13 26 28 47 33 47 4 0 8 9 8 20 0 11 3 20 8 20 4 0 14 15 21 33 8
17 23 39 33 48 10 9 18 24 18 33 0 9 5 16 10 16 6 0 10 7 10 16 0 9 14 29 30
44 17 15 30 35 30 44 0 9 5 16 10 16 6 0 10 7 10 15 0 22 22 44 43 45 16 0 15
-2 -2 -19z m3176 -286 c0 -8 -4 -12 -9 -9 -5 3 -6 10 -3 15 9 13 12 11 12 -6z
m-8185 -922 c23 -24 46 -43 53 -43 3 0 3 6 -1 13 -4 6 2 3 14 -7 12 -11 22
-16 22 -12 0 4 9 2 20 -4 15 -8 20 -8 20 2 0 11 2 11 8 0 5 -7 30 -14 55 -15
26 -1 47 -6 47 -10 0 -5 5 -5 11 -2 16 11 59 13 53 4 -3 -5 2 -9 11 -9 10 0
13 -5 9 -12 -5 -8 -1 -9 12 -4 15 6 16 5 7 -5 -9 -9 -9 -17 -1 -33 8 -15 8
-21 -2 -24 -9 -3 -9 -6 1 -13 12 -7 11 -9 -1 -9 -13 0 -13 -1 0 -10 10 -6 11
-10 3 -10 -7 0 -13 -5 -13 -11 0 -5 5 -7 12 -3 7 5 8 3 3 -7 -14 -22 -15 -60
-2 -53 9 5 9 4 0 -6 -9 -9 -9 -19 -2 -33 7 -13 7 -17 1 -13 -12 7 -11 -42 1
-61 4 -6 4 -14 -1 -17 -10 -6 -9 -66 1 -83 6 -9 3 -11 -7 -7 -13 5 -16 36 -18
197 l-3 192 -50 3 c-27 2 -54 7 -60 13 -5 5 -28 9 -52 9 -24 0 -43 5 -43 10 0
6 -17 10 -38 10 -26 0 -42 6 -52 20 -8 11 -22 20 -32 20 -11 0 -18 7 -18 20 0
25 10 25 32 3z m7874 -76 c4 -4 -7 -7 -24 -7 -18 0 -32 -4 -32 -10 0 -5 -6
-10 -14 -10 -8 0 -17 -4 -21 -10 -6 -9 -6 -2361 0 -2930 2 -179 7 -333 10
-343 6 -14 20 -17 81 -17 43 0 74 -4 74 -10 0 -5 23 -10 50 -10 28 0 50 -4 50
-10 0 -5 8 -10 18 -10 24 0 65 -38 87 -80 48 -92 55 -209 54 -880 0 -647 -13
-929 -40 -946 -5 -3 -9 -15 -9 -26 0 -29 -74 -98 -105 -98 -14 0 -25 -4 -25
-9 0 -5 -16 -9 -36 -9 -20 0 -39 -5 -43 -10 -8 -13 -111 -14 -111 -1 0 5 10 7
23 5 12 -2 27 0 32 4 6 5 26 11 45 13 19 3 36 6 38 7 1 2 7 4 12 5 6 1 13 4
18 5 4 1 18 1 31 0 17 -1 22 2 18 13 -3 8 0 14 6 14 32 -1 48 4 42 13 -3 6 -1
10 6 10 6 0 9 8 6 19 -3 14 -1 18 9 14 8 -3 15 2 15 11 2 25 4 30 13 45 7 10
5 12 -5 7 -8 -4 -5 0 5 8 15 12 16 16 5 17 -8 0 -9 2 -4 5 6 2 10 22 9 44 0
22 3 40 8 40 4 0 8 5 8 11 0 5 -6 7 -12 3 -10 -6 -10 -5 -1 7 15 19 23 319 8
319 -5 0 -1 7 9 15 11 8 15 15 9 15 -8 0 -11 33 -10 100 0 63 5 100 11 100 8
0 8 3 0 8 -14 10 -15 105 -1 114 7 5 8 8 2 8 -6 0 -12 16 -13 36 -2 27 1 34
10 28 10 -5 11 -4 1 7 -7 7 -13 26 -13 41 0 15 6 28 13 29 6 0 3 4 -8 9 -11 5
-15 9 -9 9 8 1 11 22 9 66 -2 36 1 67 6 70 5 3 3 15 -4 26 -10 16 -9 21 3 29
8 5 10 10 5 10 -6 0 -11 23 -13 51 -1 38 1 48 11 43 8 -5 7 -2 -2 9 -10 13
-11 20 -2 31 8 10 9 16 1 21 -5 3 -10 20 -10 36 0 22 4 28 13 23 9 -6 9 -4 1
7 -6 8 -11 37 -12 64 -1 157 -2 166 -14 159 -9 -5 -9 -2 1 9 11 14 11 17 0 18
-12 0 -12 1 0 6 9 4 10 8 2 12 -5 4 -11 21 -13 39 -1 18 -5 32 -8 32 -3 0 -7
10 -7 22 -1 13 -7 24 -13 26 -5 2 -10 13 -10 24 0 15 -4 18 -17 14 -10 -4 -14
-4 -11 0 8 8 -17 35 -35 38 -6 1 -18 5 -24 9 -7 5 -17 5 -23 2 -5 -3 -10 -2
-10 4 0 5 -9 8 -20 6 -11 -2 -22 0 -25 6 -4 5 -14 5 -27 -2 -15 -8 -19 -8 -14
0 5 7 -4 11 -23 12 -17 1 -44 2 -60 3 -16 0 -33 4 -37 8 -4 4 -13 3 -20 -3
-10 -8 -12 -6 -9 9 2 12 -3 23 -11 26 -11 4 -12 11 -6 23 5 10 7 31 5 46 -2
18 0 26 7 22 7 -4 7 2 0 20 -13 34 -13 48 1 39 8 -5 8 -1 0 14 -8 14 -8 23 -1
27 8 5 7 12 -1 22 -10 11 -10 16 0 23 10 6 10 9 1 15 -9 6 -9 10 1 16 11 7 11
9 -1 9 -13 0 -13 1 0 10 10 6 11 10 3 10 -7 0 -13 5 -13 11 0 5 4 8 9 4 6 -3
8 4 5 17 -3 13 -6 33 -5 45 0 12 -4 25 -10 28 -7 5 -6 12 2 22 10 11 10 19 1
33 -7 12 -8 21 -2 25 6 3 10 13 10 21 0 10 -5 12 -12 8 -10 -6 -10 -4 -2 7 12
16 11 149 -1 169 -6 10 -4 12 9 7 12 -5 15 -3 9 6 -4 6 -8 39 -9 73 0 34 -5
67 -9 74 -6 10 -4 12 9 7 11 -5 15 -3 10 5 -12 19 -13 82 -2 95 7 9 6 15 -6
19 -12 5 -14 10 -6 19 5 6 7 15 3 18 -3 4 0 14 8 24 8 9 9 14 3 10 -7 -4 -15
0 -18 9 -3 8 -2 13 2 10 4 -2 7 112 7 255 0 142 -4 259 -8 259 -5 0 -5 6 0 12
10 17 10 148 0 148 -5 0 -5 6 0 12 10 17 10 148 0 148 -5 0 -5 6 0 12 10 17
10 148 0 148 -5 0 -5 5 -1 12 12 19 11 328 -1 328 -7 0 -7 3 0 8 13 9 15 52 2
52 -6 0 -6 5 0 13 5 6 8 63 8 125 -1 75 2 112 9 112 7 0 7 3 -1 8 -7 4 -11 30
-9 67 1 33 -2 70 -6 83 -5 14 -4 21 1 17 6 -3 9 4 8 15 -1 11 -5 20 -10 20 -4
0 -5 6 0 13 9 15 10 87 1 87 -4 0 -3 12 3 27 7 19 7 29 0 31 -6 2 -9 8 -6 13
11 17 12 89 2 89 -7 0 -7 4 1 12 7 7 8 17 2 28 -5 9 -5 22 0 30 4 7 6 20 2 28
-3 9 -1 13 5 9 5 -3 16 2 24 11 15 18 81 24 95 9z m-7542 -467 c1 -16 -2 -30
-6 -30 -5 0 -8 17 -8 37 0 43 13 37 14 -7z m7 -70 c-11 -9 -9 -240 2 -233 6 4
7 1 1 -8 -5 -8 -9 -60 -10 -116 0 -57 -3 -106 -7 -109 -3 -4 -6 107 -6 245 0
208 2 249 13 238 8 -6 11 -14 7 -17z m-7 -530 c0 -28 -4 -53 -7 -57 -4 -3 -2
-12 4 -20 6 -7 7 -13 3 -13 -5 0 -8 -17 -6 -37 1 -21 3 -42 3 -48 1 -5 0 -26
-1 -45 -1 -19 1 -47 3 -62 2 -16 1 -28 -3 -28 -9 0 -6 -32 4 -48 4 -7 2 -19
-4 -27 -9 -11 -9 -15 -1 -15 9 0 9 -5 1 -20 -7 -13 -7 -20 -1 -20 7 0 7 -8 2
-23 -5 -13 -5 -30 -1 -37 5 -8 4 -22 -1 -31 -6 -11 -5 -20 1 -24 7 -4 7 -13 0
-26 -8 -14 -7 -19 1 -19 9 0 9 -3 0 -14 -8 -10 -9 -16 -1 -21 7 -4 7 -12 0
-25 -7 -13 -6 -20 3 -23 9 -3 9 -7 -2 -20 -9 -12 -10 -17 -2 -17 7 0 9 -5 5
-12 -9 -14 -12 -58 -4 -58 3 0 6 -9 6 -20 0 -11 -4 -20 -8 -20 -5 0 -4 -9 2
-20 6 -11 7 -20 2 -20 -10 0 -9 -30 2 -48 4 -7 2 -12 -6 -12 -8 0 -9 -3 -3 -8
11 -7 16 -52 6 -52 -5 0 -6 -61 -1 -67 3 -4 3 -48 0 -70 -1 -10 -7 5 -14 32
-15 62 -20 1033 -5 1051 5 6 10 30 11 53 1 22 4 41 7 41 4 0 6 -23 5 -50z m-1
-1212 c-4 -84 -13 -87 -13 -5 0 37 4 67 8 67 4 0 7 -28 5 -62z m1 -110 c-6
-45 -14 -48 -14 -5 0 21 4 37 9 37 4 0 7 -14 5 -32z m0 -94 c-5 -54 -14 -55
-14 0 0 26 4 45 8 42 5 -3 7 -22 6 -42z m-4 -89 c-9 -11 -9 -15 -1 -15 9 0 9
-5 1 -20 -7 -13 -7 -20 -1 -20 7 0 7 -9 1 -25 -7 -17 -6 -25 1 -25 8 0 7 -5
-1 -15 -10 -12 -10 -15 0 -15 9 0 10 -3 1 -13 -8 -10 -7 -17 1 -25 8 -8 8 -12
2 -12 -31 0 -44 108 -23 184 8 27 14 35 21 28 8 -8 7 -16 -2 -27z m4 -265 c-2
-86 -13 -87 -13 -1 0 40 3 70 7 67 4 -2 6 -32 6 -66z m4958 21 c15 8 19 8 14
0 -4 -6 -3 -11 2 -11 6 0 9 -13 8 -29 -2 -22 2 -28 14 -23 12 4 12 1 -3 -15
-16 -18 -16 -21 -1 -34 13 -11 14 -15 2 -23 -20 -16 -19 -276 2 -302 14 -17
14 -18 -2 -6 -14 11 -17 10 -21 -5 -3 -10 -5 78 -6 195 -1 186 -3 212 -17 212
-23 0 -35 -16 -98 -130 -32 -58 -73 -130 -91 -160 -19 -30 -41 -70 -50 -87
-10 -18 -21 -33 -26 -33 -5 0 -9 -9 -9 -20 0 -11 -4 -20 -10 -20 -5 0 -10 -9
-10 -20 0 -11 -4 -20 -10 -20 -5 0 -10 -9 -10 -20 0 -11 5 -20 10 -20 6 0 10
5 10 10 0 6 9 10 20 10 11 0 20 5 20 10 0 6 20 10 44 10 25 0 48 5 51 10 3 6
17 10 30 10 13 0 27 5 30 10 3 6 26 10 51 10 24 0 44 4 44 9 0 5 11 11 25 14
23 4 24 3 11 -12 -8 -9 -15 -20 -16 -26 0 -5 -10 -9 -22 -7 -14 3 -18 0 -13
-9 6 -8 4 -10 -5 -4 -19 11 -90 7 -106 -6 -8 -6 -14 -8 -14 -5 0 4 -6 4 -12
-1 -7 -4 -23 -8 -36 -8 -13 0 -26 -5 -30 -10 -4 -6 -13 -10 -19 -11 -40 -3
-44 -5 -37 -16 4 -7 3 -8 -4 -4 -7 4 -12 3 -12 -3 0 -6 -7 -7 -17 -4 -12 5
-14 3 -8 -7 6 -10 4 -12 -9 -7 -14 6 -17 3 -12 -8 4 -11 2 -14 -6 -9 -8 5 -9
2 -5 -9 3 -9 2 -19 -4 -22 -5 -4 -8 -1 -7 7 2 7 -2 12 -9 11 -6 -1 -14 4 -17
13 -4 10 0 14 12 12 13 -2 16 3 14 20 -2 12 2 22 9 22 6 0 9 8 6 20 -3 12 -1
17 5 14 5 -3 12 3 15 15 3 12 10 21 15 21 5 0 6 5 3 10 -3 6 -1 10 5 10 6 0 9
4 5 9 -3 5 1 16 9 24 8 8 12 17 9 21 -4 3 1 6 11 6 9 0 15 4 11 9 -3 5 2 17
11 25 8 9 12 16 8 16 -3 0 -1 6 5 13 6 8 7 17 3 21 -4 4 0 6 8 4 8 -1 15 4 15
12 0 8 10 25 23 39 12 14 21 30 18 37 -3 8 0 11 9 8 9 -4 13 1 11 13 -2 10 4
24 13 31 9 8 10 10 2 6 -8 -4 0 14 18 39 18 26 28 47 24 47 -4 0 0 5 10 11 9
6 15 14 12 20 -4 5 -1 9 5 9 6 0 8 5 5 10 -3 6 1 10 9 10 9 0 19 12 23 27 3
16 8 22 10 16 4 -10 10 -10 25 -2z m-2478 -31 c3 0 5 4 4 9 -2 5 2 9 7 9 6 1
9 -6 7 -14 -2 -8 4 -17 12 -20 8 -3 17 -12 20 -20 4 -10 1 -13 -7 -9 -6 4 -4
0 6 -8 9 -8 17 -20 17 -26 0 -7 4 -10 9 -7 5 4 7 -4 5 -16 -2 -13 -1 -17 3 -8
4 11 10 5 18 -20 7 -19 18 -34 25 -32 8 2 10 -3 7 -13 -4 -8 -2 -15 4 -15 6 0
8 -4 5 -9 -3 -5 1 -14 9 -21 8 -7 15 -19 15 -27 0 -8 4 -11 10 -8 6 3 7 -1 4
-9 -3 -9 -1 -16 6 -16 6 0 8 -4 5 -10 -3 -5 3 -17 15 -27 11 -10 20 -23 20
-30 0 -7 5 -13 12 -13 6 0 9 -3 5 -6 -3 -3 3 -15 13 -27 11 -11 17 -24 14 -29
-7 -11 22 -39 31 -30 5 4 5 1 1 -6 -5 -8 -1 -21 9 -32 11 -12 14 -26 10 -41
-5 -13 -3 -19 3 -15 6 3 9 -1 8 -11 -3 -19 -26 -31 -26 -13 0 6 5 8 12 4 7 -4
8 -3 4 5 -6 9 -11 9 -22 0 -9 -7 -14 -8 -13 -3 3 19 -1 34 -12 34 -5 0 -8 -4
-4 -9 3 -5 0 -13 -6 -17 -8 -4 -9 -3 -5 4 4 7 1 12 -9 12 -9 0 -13 4 -10 10 4
6 -6 8 -25 6 -17 -2 -33 1 -36 5 -3 5 -10 7 -15 4 -5 -4 -9 -2 -9 3 0 10 -5
11 -82 16 -37 2 -58 0 -58 -7 0 -6 -7 -2 -16 9 -8 10 -13 13 -9 7 9 -18 2 -16
-25 7 -13 11 -18 20 -11 20 7 0 9 5 5 12 -10 15 -11 99 -2 104 4 3 7 -15 6
-39 0 -32 6 -51 23 -70 23 -27 53 -35 64 -17 3 6 15 10 26 10 10 0 19 -4 19
-10 0 -5 14 -10 30 -10 17 0 30 -4 30 -10 0 -5 23 -10 50 -10 28 0 50 -4 50
-10 0 -5 5 -10 10 -10 6 0 10 6 10 12 0 17 -69 156 -81 164 -5 3 -9 14 -9 25
0 10 -4 19 -10 19 -5 0 -10 7 -10 16 0 9 -8 24 -18 33 -10 9 -25 31 -33 49 -7
17 -17 32 -21 32 -5 0 -8 8 -8 18 0 10 -9 24 -20 32 -11 8 -20 21 -20 30 0 9
-9 22 -20 30 -11 8 -20 22 -20 32 0 22 -7 23 -26 4 -9 -10 -14 -37 -14 -85 0
-39 -4 -71 -10 -71 -5 0 -7 7 -3 16 3 9 0 20 -8 25 -9 6 -10 9 -2 9 11 0 11
30 -1 48 -2 4 -1 14 4 22 5 9 5 19 -2 27 -7 9 -7 13 2 13 7 0 10 7 6 16 -3 8
-2 12 4 9 6 -3 10 2 10 12 1 17 1 17 14 1 7 -10 16 -18 20 -18z m-2480 -122
c-6 -50 -14 -45 -14 8 0 30 3 44 9 36 4 -8 7 -28 5 -44z m1 -105 c-2 -27 2
-54 7 -61 8 -9 7 -11 -6 -6 -13 5 -16 18 -15 65 1 32 5 56 9 54 4 -3 6 -26 5
-52z m2445 27 c0 -5 -5 -10 -11 -10 -5 0 -7 5 -4 10 3 6 8 10 11 10 2 0 4 -4
4 -10z m0 -47 c0 -21 -3 -24 -9 -14 -5 8 -7 20 -4 28 8 21 13 15 13 -14z m0
-58 c0 -14 -3 -25 -7 -25 -5 0 -8 11 -8 25 0 14 3 25 8 25 4 0 7 -11 7 -25z
m-2445 -53 c1 -26 5 -54 10 -61 6 -10 4 -12 -5 -6 -10 6 -12 4 -7 -8 3 -9 1
-18 -6 -21 -7 -2 -3 -5 8 -6 18 -1 17 -2 -5 -14 -14 -8 -28 -12 -32 -10 -5 3
-8 1 -8 -3 0 -5 -25 -8 -55 -7 -30 1 -55 -3 -55 -8 0 -5 -5 -6 -10 -3 -6 4
-16 3 -23 -2 -7 -5 -24 -9 -39 -8 -15 0 -24 -3 -21 -8 3 -4 -1 -7 -8 -6 -34 6
-137 -70 -124 -91 3 -5 0 -19 -6 -32 -29 -55 -31 -60 -19 -53 11 7 9 -23 -6
-59 -5 -12 -4 -17 3 -13 5 3 10 0 10 -8 0 -8 -4 -12 -8 -9 -5 3 -7 -20 -6 -51
1 -30 -1 -55 -5 -55 -8 0 -5 -21 5 -37 4 -6 2 -15 -4 -19 -8 -5 -9 -3 -4 6 5
9 4 11 -4 6 -7 -5 -9 -12 -3 -19 14 -19 14 -77 0 -77 -9 0 -9 -3 2 -10 8 -5
11 -12 7 -16 -4 -4 -2 -13 3 -19 8 -9 6 -14 -6 -19 -12 -4 -13 -10 -6 -19 6
-6 9 -45 8 -85 -1 -39 2 -72 7 -72 4 0 5 -5 2 -10 -4 -6 -12 -7 -18 -4 -8 5
-8 3 1 -7 6 -7 12 -26 12 -42 0 -20 -4 -26 -12 -21 -10 6 -10 4 -2 -7 6 -8 10
-31 10 -52 -1 -20 3 -37 7 -37 5 0 5 -6 0 -12 -11 -19 -10 -102 2 -110 7 -5 6
-8 0 -8 -7 0 -10 -33 -8 -92 1 -64 -2 -95 -10 -100 -9 -5 -9 -8 0 -8 7 0 11
-19 11 -50 1 -36 -2 -49 -11 -44 -7 4 -3 -2 7 -14 11 -13 14 -22 7 -22 -7 0
-9 -9 -5 -26 6 -22 4 -25 -7 -19 -11 7 -11 6 0 -9 12 -14 13 -21 2 -38 -7 -11
-9 -18 -4 -15 5 3 10 -54 11 -126 1 -72 7 -136 12 -141 12 -12 13 -29 2 -22
-13 8 -7 -31 7 -48 8 -9 9 -16 3 -16 -5 0 -8 -9 -5 -20 3 -11 10 -20 15 -20 5
0 7 -4 3 -9 -3 -5 0 -15 7 -23 7 -7 14 -19 16 -26 5 -24 47 -59 69 -57 12 1
20 -2 17 -6 -2 -4 0 -10 6 -14 5 -3 10 0 10 7 0 10 2 10 8 1 4 -7 18 -11 30
-8 12 2 22 0 22 -5 0 -4 9 -6 20 -3 11 3 20 0 20 -6 0 -6 5 -11 11 -11 5 0 7
6 3 13 -6 9 -4 9 7 1 19 -15 59 -24 59 -13 0 5 11 4 25 -1 16 -6 25 -6 25 1 0
6 6 6 18 0 10 -6 24 -6 32 -1 8 5 19 6 24 2 6 -3 25 -5 44 -4 23 2 31 -1 27
-8 -4 -7 2 -6 14 2 18 11 23 11 31 -2 6 -9 10 -11 10 -3 0 8 13 12 35 11 21
-1 32 -5 28 -12 -3 -6 0 -5 8 2 17 16 32 16 23 0 -6 -10 -4 -10 7 -1 17 17 32
17 23 1 -6 -10 -4 -10 7 0 17 16 32 16 23 0 -5 -8 0 -7 11 2 17 13 18 13 10 0
-6 -12 -5 -13 5 -3 9 9 17 9 26 2 8 -7 14 -7 19 1 3 5 11 10 16 10 6 0 7 -6 3
-12 -5 -9 -2 -9 9 1 14 11 17 11 17 0 0 -8 6 -6 16 7 8 10 13 14 10 7 -4 -6
-2 -14 4 -18 5 -3 10 -1 10 6 0 9 3 9 14 0 11 -9 16 -9 22 0 5 8 3 9 -6 4 -8
-5 -11 -4 -6 3 4 6 13 9 21 6 8 -4 12 -11 8 -18 -4 -6 1 -5 10 3 14 11 17 11
17 0 0 -9 3 -10 8 -4 11 16 46 19 36 3 -6 -9 -3 -9 10 1 15 13 19 13 27 0 5
-8 9 -9 9 -3 0 14 30 14 30 0 0 -6 4 -5 9 3 8 13 12 13 27 0 15 -12 17 -12 9
0 -6 11 -4 13 7 8 9 -3 21 0 27 6 9 9 10 7 5 -8 -7 -20 -7 -20 15 -1 16 15 20
16 16 5 -4 -11 0 -15 14 -14 11 1 24 4 27 8 12 12 26 8 18 -5 -4 -7 3 -4 15 6
22 20 22 20 15 0 -6 -16 -5 -17 7 -6 7 6 17 12 22 12 4 0 5 -6 1 -12 -4 -7 3
-4 16 7 13 11 20 14 15 6 -6 -10 -2 -12 15 -6 13 4 20 3 17 -2 -3 -5 3 -9 13
-9 15 0 17 3 7 15 -10 12 -9 13 8 5 11 -6 35 -9 53 -8 22 2 30 -1 25 -9 -4 -7
1 -6 11 2 15 13 19 13 27 0 6 -9 9 -10 9 -2 0 15 52 14 62 -2 5 -7 8 -6 8 1 0
6 14 11 30 12 21 0 28 -3 23 -11 -5 -9 -3 -9 8 -1 20 15 61 16 53 1 -5 -9 -3
-9 6 0 11 10 17 10 29 0 11 -9 13 -9 8 0 -5 8 2 11 23 11 16 -1 30 -6 30 -12
0 -7 3 -8 8 -1 10 15 74 16 65 1 -4 -6 1 -5 11 3 15 13 19 13 27 0 6 -10 9
-10 9 -1 0 6 7 12 15 12 8 0 15 -6 16 -12 0 -10 2 -10 6 0 6 16 33 16 34 0 0
-10 2 -10 6 0 2 6 14 12 24 12 14 0 18 -4 13 -12 -5 -9 -2 -9 9 1 14 11 20 11
34 0 11 -10 14 -10 9 -1 -4 6 -3 12 1 12 5 0 15 -6 22 -12 11 -10 13 -10 7 0
-9 16 6 16 23 0 10 -9 12 -9 7 -1 -8 15 33 14 53 -1 11 -8 13 -8 8 1 -9 15 32
14 52 -1 11 -8 13 -8 8 0 -4 7 0 14 8 18 8 3 17 1 20 -4 3 -5 13 -6 22 -3 12
5 14 3 8 -8 -8 -12 -6 -12 8 0 14 11 17 11 18 0 0 -10 2 -11 6 -1 6 16 33 16
34 0 0 -10 2 -10 6 0 6 16 33 16 34 0 0 -10 2 -10 6 0 6 16 33 16 33 0 0 -9 3
-10 8 -2 9 14 82 14 83 0 0 -6 4 -2 9 9 5 11 9 15 9 9 1 -6 23 -9 56 -7 38 1
55 -2 56 -10 0 -7 4 -3 9 8 5 11 9 15 9 9 1 -7 12 -9 27 -6 16 3 30 -1 35 -9
7 -11 9 -10 9 4 0 12 4 16 12 10 20 -11 52 -9 67 5 10 9 17 10 27 1 7 -6 19
-7 26 -3 7 5 28 9 46 9 19 1 38 8 43 16 7 11 9 12 9 0 0 -11 3 -11 17 0 15 12
16 12 8 -1 -7 -12 -6 -13 6 -4 8 6 25 11 38 12 13 0 27 6 31 12 4 7 10 11 14
11 20 -3 26 0 21 9 -4 6 1 7 11 3 11 -4 15 -3 10 5 -3 6 -1 14 6 19 7 4 19 19
26 32 8 12 9 20 3 16 -6 -3 -11 -1 -11 4 0 6 7 11 15 11 9 0 15 -9 15 -25 0
-14 -4 -25 -10 -25 -5 0 -10 -7 -10 -16 0 -22 -25 -44 -50 -44 -12 0 -18 -5
-15 -10 3 -5 -3 -10 -14 -10 -12 0 -21 -4 -21 -10 0 -5 -22 -10 -50 -10 -27 0
-50 -4 -50 -9 0 -5 -32 -10 -72 -10 -39 0 -76 -5 -82 -11 -14 -14 -2562 -14
-2571 0 -3 6 -26 10 -50 10 -24 0 -47 5 -50 10 -3 6 -22 10 -41 10 -19 0 -34
5 -34 10 0 6 -9 10 -20 10 -11 0 -20 5 -20 10 0 6 -9 10 -20 10 -13 0 -20 7
-20 20 0 11 -4 20 -10 20 -5 0 -10 9 -10 20 0 11 -4 20 -10 20 -5 0 -10 14
-10 30 0 17 -4 30 -10 30 -5 0 -9 40 -9 91 0 51 -5 97 -10 102 -15 15 -15
1313 -1 1322 6 3 10 48 10 101 0 56 4 94 10 94 6 0 10 18 10 40 0 22 5 40 10
40 6 0 10 7 10 16 0 23 50 64 78 64 12 0 22 5 22 10 0 6 15 10 34 10 19 0 38
5 41 10 3 6 36 10 72 10 50 0 72 5 94 21 27 19 29 24 29 91 0 78 13 87 15 10z
m2825 -232 c-8 -5 -19 -10 -25 -10 -5 0 -3 5 5 10 8 5 20 10 25 10 6 0 3 -5
-5 -10z m18 -22 c-2 -7 6 -13 17 -12 14 1 21 -6 22 -18 2 -23 22 -50 32 -44 4
3 8 -5 8 -17 1 -12 9 -27 17 -33 9 -6 13 -14 9 -17 -3 -4 -1 -7 5 -7 7 0 12
-7 12 -16 0 -8 5 -12 10 -9 6 3 10 -3 10 -14 0 -12 6 -21 14 -21 9 0 12 -7 9
-20 -3 -11 0 -20 6 -20 6 0 11 -7 11 -15 0 -7 8 -19 18 -24 9 -6 13 -11 9 -11
-5 0 5 -18 22 -39 17 -21 31 -44 31 -51 0 -6 5 -8 12 -4 6 4 8 3 4 -4 -3 -6 0
-16 7 -24 7 -7 14 -17 15 -23 1 -5 8 -10 14 -10 7 0 13 -7 13 -15 1 -29 16
-60 27 -54 6 4 8 2 4 -4 -3 -6 1 -17 9 -25 8 -9 15 -19 15 -23 0 -4 8 -16 18
-27 10 -13 11 -17 3 -12 -9 5 -7 -2 5 -17 10 -14 23 -23 28 -20 5 3 7 -2 3
-11 -3 -9 0 -18 9 -21 9 -3 13 -10 9 -15 -3 -5 -1 -12 5 -16 6 -4 8 -10 5 -15
-3 -5 7 -18 21 -29 15 -12 23 -21 19 -21 -5 0 0 -10 11 -22 10 -12 13 -18 5
-13 -15 8 17 -45 34 -57 5 -4 6 -8 2 -8 -5 0 -2 -7 5 -15 26 -29 38 -44 38
-49 0 -3 16 -22 35 -42 19 -19 35 -33 35 -29 0 3 7 -1 16 -9 8 -9 19 -14 24
-11 5 3 10 0 12 -6 2 -6 23 -11 46 -11 30 1 40 -3 35 -11 -4 -7 1 -6 11 2 14
12 19 12 26 2 5 -10 9 -10 15 -2 5 9 11 9 23 -1 13 -11 14 -11 8 0 -7 12 -4
12 14 2 16 -9 20 -9 15 -1 -5 8 2 11 22 8 15 -2 34 0 41 6 6 5 12 6 12 2 0 -4
8 -1 17 6 13 11 15 11 9 1 -7 -11 -4 -11 15 0 13 7 27 18 31 23 4 6 11 10 15
10 10 0 55 45 46 45 -5 0 0 5 10 11 9 5 17 17 17 24 0 8 5 15 11 15 5 0 8 4 5
8 -3 5 3 18 13 28 10 11 17 27 15 37 -1 9 3 15 9 14 7 -1 11 4 10 11 -2 6 4
12 13 12 8 0 13 4 9 9 -7 13 16 62 26 55 5 -3 9 0 9 5 0 18 3 26 17 39 7 8 11
18 8 23 -4 5 1 9 9 9 9 0 15 3 14 8 -3 15 15 42 25 35 6 -3 7 -1 3 6 -4 6 3
25 15 43 14 18 17 28 8 24 -7 -4 -6 -1 4 7 9 8 17 20 17 26 0 7 5 9 12 5 8 -5
9 -2 5 10 -4 10 -3 15 3 11 9 -5 15 16 11 38 -1 5 3 6 8 2 10 -6 37 34 33 48
-1 5 2 6 7 3 9 -6 27 31 23 47 -1 4 3 7 9 7 6 0 8 7 5 16 -3 8 -2 12 4 9 6 -3
10 1 10 10 0 8 6 18 14 21 8 3 13 11 10 19 -3 7 2 15 11 19 9 3 13 10 10 16
-3 5 0 10 7 10 9 0 9 3 -2 10 -13 8 -13 10 1 10 9 0 21 11 27 25 6 14 16 25
22 25 5 0 10 5 10 11 0 5 -5 7 -12 3 -7 -4 -8 -3 -4 4 4 7 14 12 22 12 8 0 13
4 9 9 -3 5 -1 12 5 16 6 4 8 11 5 16 -4 5 -1 9 4 9 6 0 10 6 9 13 -2 6 3 11
11 9 12 -3 12 0 1 13 -11 13 -10 15 4 9 12 -5 16 0 16 16 0 18 3 20 13 11 8
-6 17 -7 21 -3 4 4 7 2 6 -3 -5 -22 1 -36 12 -29 7 4 8 3 4 -4 -4 -7 -15 -12
-24 -13 -14 0 -13 -2 3 -9 11 -5 16 -9 10 -9 -6 -1 -10 -29 -9 -65 0 -36 -3
-63 -8 -60 -4 3 -8 0 -8 -5 0 -6 5 -11 10 -11 6 0 10 -5 10 -11 0 -5 -4 -8 -9
-5 -12 8 -8 -27 4 -36 6 -5 5 -8 -2 -8 -7 0 -13 -9 -13 -19 0 -11 6 -22 13
-24 7 -3 5 -6 -5 -6 -16 -1 -18 12 -18 129 0 72 -4 130 -8 130 -5 0 -20 -21
-33 -47 -13 -27 -33 -58 -44 -71 -23 -27 -60 -89 -105 -177 -17 -33 -38 -67
-46 -76 -8 -8 -14 -21 -14 -27 0 -7 -4 -12 -10 -12 -5 0 -10 -6 -10 -13 0 -7
-8 -22 -17 -33 -10 -10 -24 -31 -32 -46 -8 -16 -18 -28 -23 -28 -4 0 -8 -9 -8
-20 0 -11 -4 -20 -10 -20 -5 0 -10 -8 -10 -18 0 -10 -9 -24 -20 -32 -11 -8
-20 -22 -20 -32 0 -10 -4 -18 -10 -18 -5 0 -10 -9 -10 -20 0 -11 -4 -20 -10
-20 -5 0 -10 -6 -10 -13 0 -7 -9 -23 -20 -35 -11 -12 -20 -23 -20 -25 0 -3
-16 -31 -35 -63 -43 -70 -85 -116 -102 -110 -6 3 -10 0 -7 -7 5 -15 -41 -37
-78 -37 -15 0 -28 -4 -28 -10 0 -6 -42 -10 -105 -10 -63 0 -105 4 -105 10 0 6
-17 10 -38 10 -26 0 -42 6 -52 20 -8 11 -22 20 -32 20 -10 0 -18 7 -18 15 0 8
-18 33 -39 56 -22 22 -46 53 -53 70 -7 16 -16 29 -20 29 -5 0 -8 9 -8 20 0 11
-4 20 -10 20 -5 0 -10 8 -10 18 0 10 -9 24 -20 32 -11 8 -20 22 -20 32 0 10
-4 18 -10 18 -5 0 -10 8 -10 18 0 10 -9 24 -20 32 -11 8 -20 22 -20 32 0 10
-4 18 -10 18 -5 0 -10 8 -10 18 0 10 -9 24 -20 32 -11 8 -20 22 -20 32 0 10
-4 18 -10 18 -5 0 -10 6 -10 14 0 7 -7 19 -14 26 -8 6 -25 33 -37 58 -13 26
-31 54 -41 63 -10 9 -18 23 -18 30 0 8 -9 21 -20 29 -11 8 -20 22 -20 32 0 10
-4 18 -10 18 -5 0 -10 8 -10 18 0 10 -9 24 -20 32 -11 8 -20 20 -20 28 0 7 -9
22 -20 34 -11 12 -20 28 -20 35 0 12 -25 18 -57 14 -8 -1 -10 5 -7 14 3 8 11
12 18 9 6 -3 2 2 -8 10 -14 11 -15 16 -6 16 11 0 11 3 2 12 -15 15 -16 28 -2
28 6 0 9 -6 8 -12z m27 -1048 c-2 -627 -7 -750 -31 -750 -15 0 -15 34 -1 58 5
7 3 12 -5 12 -10 0 -10 2 0 8 9 6 13 60 14 215 0 149 4 205 12 200 8 -5 8 -3
0 8 -8 9 -11 70 -10 187 0 109 -3 172 -9 172 -5 0 -3 5 5 11 12 8 12 12 2 16
-10 4 -10 8 -1 19 9 11 8 14 -2 14 -9 0 -10 3 -4 8 15 11 17 32 3 32 -9 0 -8
4 2 10 12 8 13 11 1 19 -9 6 -10 11 -2 15 6 4 9 11 6 16 -5 8 -9 179 -5 205 1
6 1 42 1 80 0 39 -1 137 -1 218 0 115 -3 146 -13 141 -6 -5 -5 0 3 11 12 15
13 19 1 23 -11 4 -11 6 0 13 25 15 36 -318 34 -961z m1700 711 c3 -5 1 -12 -5
-16 -5 -3 -10 1 -10 9 0 18 6 21 15 7z m-2 -203 c1 -100 5 -166 12 -170 6 -5
6 -8 -2 -8 -7 0 -13 -7 -13 -16 0 -8 5 -12 11 -9 6 4 5 -3 -3 -15 -11 -19 -11
-23 1 -28 11 -4 11 -6 0 -13 -12 -7 -12 -12 -1 -30 8 -12 9 -18 2 -14 -14 9
-11 -64 4 -84 8 -11 8 -13 -1 -7 -7 4 -13 3 -13 -1 0 -5 6 -15 13 -22 10 -11
9 -12 -2 -6 -11 6 -13 2 -7 -19 4 -15 2 -26 -4 -26 -7 0 -10 110 -10 321 0
177 3 319 6 316 3 -3 6 -79 7 -169z m2 -499 c-4 -5 0 -9 7 -9 9 0 9 -3 2 -8
-13 -8 -16 -110 -3 -117 10 -7 0 -35 -12 -35 -5 0 -9 43 -9 96 0 62 4 93 10
89 6 -4 8 -11 5 -16z m8 -186 c-7 -2 -13 -13 -13 -24 0 -10 6 -19 13 -19 9 0
8 -3 -2 -9 -9 -6 -10 -10 -2 -16 9 -5 9 -10 1 -20 -13 -16 -10 -75 4 -94 8
-11 8 -13 0 -8 -8 4 -11 -9 -11 -43 0 -31 3 -47 10 -43 6 4 7 1 1 -8 -12 -18
-14 -90 -3 -83 5 3 6 -2 3 -10 -18 -47 -24 2 -24 184 1 181 3 200 18 199 11 0
12 -3 5 -6z m2 -413 c-4 -6 -1 -18 6 -26 10 -12 9 -13 -6 -8 -14 6 -16 4 -8
-12 5 -10 11 -37 12 -59 2 -22 7 -42 12 -45 4 -3 10 -21 11 -39 2 -23 8 -36
20 -39 10 -2 18 -9 18 -14 0 -5 -6 -6 -12 -2 -9 5 -9 2 1 -9 7 -9 20 -17 28
-17 8 0 11 -4 8 -10 -5 -9 23 -15 48 -11 4 0 7 -4 7 -11 0 -9 3 -9 12 0 7 7
16 8 23 2 6 -5 28 -10 48 -12 20 -1 37 -5 37 -10 0 -4 54 -7 121 -7 66 1 123
-2 126 -4 3 -3 12 -3 21 0 11 5 13 3 7 -8 -8 -12 -6 -12 8 0 14 11 20 11 34 0
11 -10 14 -10 9 -1 -4 6 -3 12 1 12 5 0 15 -6 22 -12 10 -9 12 -9 7 -1 -4 8 3
11 24 11 16 -1 30 -6 30 -12 0 -7 3 -6 8 1 8 13 41 11 65 -3 7 -5 6 0 -3 11
-14 17 -14 18 5 8 11 -6 26 -8 34 -5 10 3 11 0 5 -9 -6 -11 -4 -11 10 0 15 13
19 13 27 0 6 -10 9 -10 9 -1 0 6 7 12 15 12 8 0 15 -6 15 -12 0 -8 3 -9 8 -3
11 15 32 17 32 2 0 -8 3 -8 9 2 8 13 12 13 27 0 15 -12 17 -12 9 0 -6 11 -4
13 7 8 9 -3 21 0 27 6 9 9 10 7 5 -8 -7 -20 -7 -20 15 -1 22 20 22 20 16 0 -7
-19 -6 -19 9 0 16 19 16 19 16 1 0 -15 3 -16 12 -7 16 16 31 15 22 0 -4 -7 3
-4 15 6 22 20 22 20 15 0 -6 -16 -5 -17 7 -6 17 16 32 16 23 0 -4 -7 3 -4 16
7 13 11 20 14 15 6 -6 -10 -2 -12 15 -6 13 4 20 3 17 -2 -3 -5 3 -9 13 -9 15
0 17 3 7 15 -10 12 -9 13 8 4 11 -6 26 -8 34 -5 10 3 11 0 5 -9 -6 -11 -4 -11
10 0 15 13 19 13 27 0 6 -10 9 -10 9 -1 0 6 7 12 15 12 8 0 15 -6 15 -12 0
-10 2 -10 9 0 9 15 58 14 80 -3 11 -7 13 -7 7 3 -4 7 -1 12 8 12 9 0 16 -6 17
-12 0 -10 2 -10 6 0 4 10 8 10 21 0 12 -10 14 -10 8 0 -9 16 6 16 23 0 11 -11
12 -10 6 2 -8 13 -7 13 10 0 11 -9 16 -10 11 -2 -4 6 -3 12 3 12 5 0 13 -4 16
-10 4 -6 13 -5 25 2 15 10 22 10 32 0 9 -9 16 -8 30 5 18 16 18 16 11 -3 -7
-18 -6 -18 20 -1 25 16 26 16 20 0 -5 -15 -3 -16 7 -6 9 9 17 9 26 2 8 -7 14
-7 19 1 3 5 11 10 16 10 6 0 7 -6 3 -12 -5 -9 -2 -9 9 1 14 11 17 11 17 0 0
-11 2 -11 10 1 9 13 11 13 20 0 8 -12 10 -12 10 -1 0 11 3 11 17 0 11 -10 14
-10 9 -1 -4 6 -3 12 3 12 5 0 13 -5 17 -11 4 -8 9 -8 17 0 15 15 30 14 21 -1
-6 -10 -4 -10 7 0 15 14 33 16 25 3 -6 -9 29 -7 63 4 14 4 21 2 21 -7 0 -10 3
-9 10 2 8 13 10 13 10 1 0 -11 4 -10 16 5 8 10 13 14 10 8 -3 -7 1 -15 10 -18
8 -3 12 -2 9 4 -3 6 -2 10 4 10 5 0 12 -6 14 -12 3 -7 6 -4 6 6 1 20 1 20 16
0 10 -13 14 -14 15 -5 0 11 3 11 17 0 13 -11 15 -11 9 -1 -10 16 25 13 36 -3
5 -6 8 -5 8 3 0 6 7 12 16 12 9 0 12 -5 8 -12 -5 -9 -2 -9 9 1 14 11 17 11 18
0 0 -10 2 -11 6 -1 2 6 11 12 19 12 10 0 12 -5 8 -12 -6 -10 -4 -10 8 0 16 13
44 12 67 -2 10 -7 12 -6 6 4 -6 10 -3 12 12 8 12 -3 27 -2 34 3 7 4 19 3 25
-2 8 -7 14 -6 19 1 5 8 14 6 28 -7 11 -10 18 -13 14 -7 -4 7 5 11 24 12 19 0
27 -3 23 -10 -5 -7 -2 -8 7 -2 24 15 62 17 54 2 -4 -7 1 -4 9 6 16 20 16 20
17 0 0 -10 3 -13 6 -6 2 6 11 12 19 12 8 0 14 -6 15 -12 0 -10 2 -10 6 0 2 6
11 12 19 12 9 0 12 -5 8 -12 -6 -10 -4 -10 7 0 15 14 43 16 34 2 -3 -6 1 -7 9
-4 9 3 13 11 10 16 -4 6 3 5 15 -1 14 -8 21 -8 21 -1 0 8 6 8 20 0 15 -8 20
-8 21 2 0 11 2 11 6 0 4 -10 8 -10 19 -1 17 14 19 -2 2 -19 -16 -16 -2583 -18
-2593 -2 -3 6 -28 10 -55 10 -27 0 -52 5 -55 10 -3 6 -27 10 -53 10 -36 0 -51
5 -62 20 -8 11 -22 20 -32 20 -11 0 -18 7 -18 20 0 11 -4 20 -10 20 -5 0 -10
9 -10 20 0 11 -4 20 -10 20 -5 0 -10 18 -10 39 0 22 -4 43 -10 46 -5 3 -10 33
-10 66 0 47 3 59 16 59 8 0 12 -5 9 -10z"/>
<path d="M4506 3817 c3 -10 9 -15 12 -12 3 3 0 11 -7 18 -10 9 -11 8 -5 -6z"/>
<path d="M4576 3682 c-3 -5 1 -9 9 -9 8 0 12 4 9 9 -3 4 -7 8 -9 8 -2 0 -6 -4
-9 -8z"/>
</g>
</svg>
